<?xml version="1.0"?>
<svg xmlns="http://www.w3.org/2000/svg" xmlns:xlink="http://www.w3.org/1999/xlink" version="1.1" id="Capa_1" x="0px" y="0px" viewBox="0 0 512 512" style="enable-background:new 0 0 512 512;" xml:space="preserve" width="512px" height="512px"><g><g>
	<g>
		<g>
			<path d="M446.906,452.729l-57.448-248.99c-4.5-19.479-21.594-33.073-41.583-33.073h-49.208V128h10.667     c64.698,0,117.333-52.635,117.333-117.333C426.667,4.771,421.896,0,416,0H96c-5.896,0-10.667,4.771-10.667,10.667     C85.333,75.365,137.969,128,202.667,128h10.667v42.667h-49.208c-19.99,0-37.083,13.594-41.583,33.073L64.271,456.271     c-0.177,0.781-0.271,1.594-0.271,2.396v10.667C64,492.865,83.135,512,106.667,512h298.667C428.865,512,448,492.865,448,469.333     v-7.01C448,459.052,447.625,455.813,446.906,452.729z M117.333,469.333c-5.891,0-10.667-4.776-10.667-10.667     c0-5.892,4.776-10.667,10.667-10.667S128,452.775,128,458.667C128,464.557,123.224,469.333,117.333,469.333z M256,448     c-58.813,0-106.667-47.854-106.667-106.667c0-58.813,47.854-106.667,106.667-106.667s106.667,47.854,106.667,106.667     C362.667,400.146,314.813,448,256,448z" data-original="#000000" class="active-path" data-old_color="#000000" fill="#3BB4C1"/>
			<path d="M256,277.333c-4.99,0-9.313,3.458-10.406,8.323c-4.083,18.156-10.927,49.521-10.927,55.677     c0,11.76,9.573,21.333,21.333,21.333s21.333-9.573,21.333-21.333c0-6.156-6.844-37.521-10.927-55.677     C265.313,280.792,260.99,277.333,256,277.333z" data-original="#000000" class="active-path" data-old_color="#000000" fill="#3BB4C1"/>
		</g>
	</g>
</g></g> </svg>
