<?xml version="1.0"?>
<svg xmlns="http://www.w3.org/2000/svg" height="512px" viewBox="0 0 192 192" width="512px"><g><path d="m128 32v-8a24.027 24.027 0 0 0 -24-24h-16a24.027 24.027 0 0 0 -24 24v8h-56v16h176v-16zm-48-8a8.009 8.009 0 0 1 8-8h16a8.009 8.009 0 0 1 8 8v8h-32z" data-original="#000000" class="active-path" data-old_color="#000000" fill="#3BB4C1"/><path d="m30.467 170.651a23.976 23.976 0 0 0 23.854 21.349h83.358a23.976 23.976 0 0 0 23.854-21.35l12.739-114.65h-156.544zm97.561-99.316 15.944 1.33-8 96-15.944-1.33zm-40.028.665h16v96h-16zm-24.028-.665 8 96-15.944 1.33-8-96z" data-original="#000000" class="active-path" data-old_color="#000000" fill="#3BB4C1"/></g> </svg>
